<?xml version="1.0" standalone="no"?>
<!DOCTYPE svg PUBLIC "-//W3C//DTD SVG 20010904//EN"
 "http://www.w3.org/TR/2001/REC-SVG-20010904/DTD/svg10.dtd">
<svg version="1.0" xmlns="http://www.w3.org/2000/svg"
 width="32.000000pt" height="34.000000pt" viewBox="0 0 32.000000 34.000000"
 preserveAspectRatio="xMidYMid meet">

<g transform="translate(0.000000,34.000000) scale(0.100000,-0.100000)"
fill="#000000" stroke="none">
<path d="M242 307 c-49 -51 -43 -67 23 -67 42 0 55 3 55 15 0 10 -10 15 -32
15 l-31 0 22 23 c18 20 19 26 8 35 -11 9 -21 4 -45 -21z"/>
<path d="M19 294 c-17 -21 0 -49 32 -49 18 0 25 6 27 24 6 38 -34 55 -59 25z"/>
<path d="M3 148 c11 -81 71 -133 155 -133 88 0 140 46 157 138 7 35 6 37 -19
37 -21 0 -26 -5 -26 -25 0 -62 -50 -109 -116 -109 -48 0 -86 32 -103 87 -11
35 -20 47 -34 47 -17 0 -19 -5 -14 -42z"/>
</g>
</svg>