<svg xmlns="http://www.w3.org/2000/svg" viewBox="0 0 40 40" fill="none" width="40" height="40"><circle cx="19.9999" cy="20" r="19.8602" transform="rotate(0.404737 19.9999 20)" fill="url(#paint0_linear_1265_4857)"></circle><path d="M14.0564 14.6406H11.065C10.5155 14.6406 10.0701 15.0515 10.0701 15.5583V18.3176C10.0701 18.8245 10.5155 19.2354 11.065 19.2354H14.0564C14.6059 19.2354 15.0514 18.8245 15.0514 18.3176V15.5583C15.0514 15.0515 14.6059 14.6406 14.0564 14.6406Z" fill="white"></path><path d="M15.0579 10.9876V13.7288C15.0579 14.236 15.503 14.6466 16.0529 14.6466H22.4742C23.3513 14.6466 23.803 13.6684 23.1877 13.0888L20.2814 10.3476C20.0916 10.1725 19.8363 10.0699 19.5679 10.0699H16.0463C15.4965 10.0699 15.0514 10.4805 15.0514 10.9876H15.0579Z" fill="white"></path><path d="M24.8241 16.8032V18.3247C24.8241 18.8319 24.379 19.2425 23.8292 19.2425H16.0398C15.4899 19.2425 15.0448 19.653 15.0448 20.1602V22.7625C15.0448 23.2697 14.5997 23.6803 14.0499 23.6803H11.065C10.5152 23.6803 10.0701 24.0909 10.0701 24.598V27.3573C10.0701 27.8645 10.5152 28.2751 11.065 28.2751H14.0564C14.6063 28.2751 15.0514 27.8645 15.0514 27.3573V24.755C15.0514 24.2478 15.4965 23.8373 16.0463 23.8373H23.8357C24.3856 23.8373 24.8307 24.2478 24.8307 24.755V27.3573C24.8307 27.8645 25.2758 28.2751 25.8256 28.2751H28.7974C29.3472 28.2751 29.7924 27.8645 29.7924 27.3573V19.484C29.7924 19.2364 29.6876 19.001 29.4913 18.8259L26.5195 16.1511C25.8911 15.5835 24.8307 15.9941 24.8307 16.8092L24.8241 16.8032Z" fill="white"></path><defs><linearGradient id="paint0_linear_1265_4857" x1="5.35387" y1="5.21006" x2="31.935" y2="42.7572" gradientUnits="userSpaceOnUse"><stop stop-color="#0066FF"></stop><stop offset="0.301205" stop-color="#015B8F"></stop><stop offset="0.685744" stop-color="#9681FF"></stop><stop offset="1" stop-color="#DDCD4D"></stop></linearGradient></defs></svg>