<svg width="20.000000" height="20.000000" viewBox="0 0 20 20" fill="none">
  <defs>
    <linearGradient id="paint_linear_41_26973_0" x1="14.160421" y1="1.664612" x2="14.160421" y2="18.335443"
      gradientUnits="userSpaceOnUse">
      <stop stop-color="#82B1FF" />
      <stop offset="1.000000" stop-color="#665FFF" />
    </linearGradient>
    <linearGradient id="paint_linear_41_26973_1" x1="10.003654" y1="1.664612" x2="10.003654" y2="18.335445"
      gradientUnits="userSpaceOnUse">
      <stop stop-color="#21C6FE" />
      <stop offset="1.000000" stop-color="#166CE8" />
      <stop offset="1.000000" stop-color="#1470F5" />
    </linearGradient>
    <linearGradient id="paint_linear_41_26973_2" x1="14.160421" y1="1.664612" x2="14.160421" y2="18.335443"
      gradientUnits="userSpaceOnUse">
      <stop stop-color="#53EDD6" />
      <stop offset="1.000000" stop-color="#28C9B7" />
    </linearGradient>
    <linearGradient id="paint_linear_41_26973_3" x1="14.160421" y1="1.664612" x2="14.160421" y2="18.335443"
      gradientUnits="userSpaceOnUse">
      <stop stop-color="#FFCD6A" />
      <stop offset="1.000000" stop-color="#FFA85C" />
    </linearGradient>
  </defs>
  <rect id="vuesax/bold/verify" width="20.000000" height="20.000000" fill="#FFFFFF" fill-opacity="0" />
  <path id="Vector"
    d="M17.9667 8.95003L16.8333 7.63336C16.6167 7.38336 16.4417 6.9167 16.4417 6.58336L16.4417 5.1667C16.4417 4.28336 15.7167 3.55836 14.8333 3.55836L13.4167 3.55836C13.0917 3.55836 12.6167 3.38336 12.3667 3.1667L11.05 2.03336C10.475 1.5417 9.53334 1.5417 8.95 2.03336L7.64167 3.17503C7.39167 3.38336 6.91667 3.55836 6.59167 3.55836L5.15 3.55836C4.26667 3.55836 3.54167 4.28336 3.54167 5.1667L3.54167 6.59169C3.54167 6.9167 3.36667 7.38336 3.15834 7.63336L2.03334 8.95836C1.55 9.53336 1.55 10.4667 2.03334 11.0417L3.15834 12.3667C3.36667 12.6167 3.54167 13.0834 3.54167 13.4084L3.54167 14.8334C3.54167 15.7167 4.26667 16.4417 5.15 16.4417L6.59167 16.4417C6.91667 16.4417 7.39167 16.6167 7.64167 16.8334L8.95834 17.9667C9.53334 18.4584 10.475 18.4584 11.0583 17.9667L12.375 16.8334C12.625 16.6167 13.0917 16.4417 13.425 16.4417L14.8417 16.4417C15.725 16.4417 16.45 15.7167 16.45 14.8334L16.45 13.4167C16.45 13.0917 16.625 12.6167 16.8417 12.3667L17.975 11.05C18.4583 10.475 18.4583 9.52502 17.9667 8.95003ZM13.4667 8.42503L9.44167 12.45C9.325 12.5667 9.16667 12.6334 9.00001 12.6334C8.83334 12.6334 8.675 12.5667 8.55833 12.45L6.54167 10.4334C6.3 10.1917 6.3 9.79169 6.54167 9.55003C6.78334 9.30836 7.18333 9.30836 7.425 9.55003L9.00001 11.125L12.5833 7.5417C12.825 7.30003 13.225 7.30003 13.4667 7.5417C13.7083 7.78336 13.7083 8.18336 13.4667 8.42503Z"
    fill="url(#paint_linear_41_26973_0)" fill-opacity="1.000000" fill-rule="nonzero" />
  <g opacity="0.000000" />
</svg>