<svg width="48.001953" height="48.002441" viewBox="0 0 48.002 48.0024" fill="none">
  <defs>
    <clipPath id="clip204_7810">
      <rect id="Close_MD" width="24.000000" height="24.000000" transform="translate(12.501953 12.000000)" fill="white"
        fill-opacity="0" />
    </clipPath>
  </defs>
  <path id="Middle Ring"
    d="M29.8037 47.2825C35.0928 45.9683 39.9653 42.8577 43.416 38.1099C46.6187 33.6997 48.3521 28.1846 47.938 22.3296C47.5625 16.8926 45.3452 11.5535 41.2642 7.33447C37.4814 3.41113 32.3516 0.746338 26.5132 0.137451C21.0938 -0.436768 15.4507 0.819824 10.5874 4.10596C6.06641 7.1499 2.55127 11.7395 0.937988 17.3831C-0.568359 22.6208 -0.311035 28.396 2.08057 33.7563C4.29346 38.7371 8.20264 42.9956 13.4805 45.5645C18.377 47.9575 24.1094 48.707 29.8037 47.2825ZM40.7573 22.8313C41.0254 26.637 40.0073 30.5535 37.5918 33.877C35.3477 36.9624 32.0503 39.3083 28.0625 40.2979C24.3613 41.2227 20.3271 40.9001 16.6362 39.095C13.2065 37.4243 10.3237 34.5842 8.65674 30.8289C7.10352 27.3445 6.72021 23.3159 7.85742 19.3674C8.90723 15.6997 11.2031 12.3677 14.6123 10.0737C17.7739 7.93896 21.6748 6.8623 25.7607 7.29639C29.5547 7.69312 33.2354 9.37573 36.0859 12.3347C38.7378 15.0776 40.4751 18.7322 40.7573 22.8313Z"
    fill="#F64949" fill-opacity="0.140000" fill-rule="evenodd" />
  <g clip-path="url(#clip204_7810)">
    <path id="Vector" d="M30.502 30L24.502 24L18.502 18M30.502 18L24.502 24M24.502 24L18.502 30" stroke="#F64949"
      stroke-opacity="1.000000" stroke-width="4.000000" stroke-linejoin="round" />
  </g>
</svg>