<svg width="20.000000" height="20.000000" viewBox="0 0 20 20" fill="none" xmlns="http://www.w3.org/2000/svg"
  xmlns:xlink="http://www.w3.org/1999/xlink">

  <path
    d="M17.708 7.625C15.7832 4.6001 12.9663 2.8584 10 2.8584C8.5166 2.8584 7.07471 3.29175 5.7583 4.1001C4.44141 4.91675 3.2583 6.1084 2.2915 7.625C1.45801 8.93335 1.45801 11.0583 2.2915 12.3667C4.21631 15.4001 7.0332 17.1333 10 17.1333C11.4834 17.1333 12.9248 16.7 14.2417 15.8918C15.5581 15.075 16.7417 13.8833 17.708 12.3667C18.5415 11.0667 18.5415 8.93335 17.708 7.625ZM10 13.3667C8.1333 13.3667 6.6333 11.8584 6.6333 10C6.6333 8.14185 8.1333 6.6333 10 6.6333C11.8667 6.6333 13.3667 8.14185 13.3667 10C13.3667 11.8584 11.8667 13.3667 10 13.3667Z"
    fill="#8E8E93" fill-opacity="1.000000" fill-rule="nonzero" />
  <path
    d="M10 7.6167C8.69189 7.6167 7.625 8.68335 7.625 10C7.625 11.3083 8.69189 12.375 10 12.375C11.3081 12.375 12.3833 11.3083 12.3833 10C12.3833 8.69165 11.3081 7.6167 10 7.6167Z"
    fill="#8E8E93" fill-opacity="1.000000" fill-rule="nonzero" />
  <g opacity="0.000000" />
</svg>