<svg xmlns="http://www.w3.org/2000/svg" width="530" height="348" viewBox="160 50 230 200" fill="none"><path d="M276.152 53.9277L319.344 92.6781L296.412 112.195L276.152 53.9277Z" fill="#4D82A9"></path><path d="M210.804 184.753L319.324 92.6733L348.404 118.866L210.809 184.758L210.804 184.753Z" fill="#4D82A9"></path><path d="M348.418 118.872V72.7646L319.332 92.6787L348.418 118.872Z" fill="#ABD0EA"></path><path d="M348.415 72.7646H369.013L383.59 85.7297H348.415V72.7646ZM348.415 85.7297V118.872L375.633 106.11L348.42 85.7351L348.415 85.7297Z" fill="#689AB6"></path><path d="M383.59 85.7295H348.415L375.628 106.11L383.585 85.7349L383.59 85.7295Z" fill="black"></path><path d="M395.951 96.7531L375.616 106.11L383.579 85.7344L395.951 96.7531Z" fill="#F28A3F"></path><path d="M348.396 118.871L315.769 176.876L375.609 106.115L348.396 118.871Z" fill="#689AB6"></path><path d="M210.804 184.758L315.777 176.876L348.41 118.876L210.804 184.758Z" fill="#ABD0EA"></path><path d="M315.777 176.876L220.097 202.597L210.804 184.758L315.777 176.876Z" fill="#689AB6"></path><path d="M276.133 53.9273L177.179 0.201172L133.049 10.0885L281.418 68.8226L276.133 53.922V53.9273Z" fill="#ABD0EA"></path><path d="M136.526 44.6355L172.233 25.4614L281.418 68.8284L285.228 79.7827L136.526 44.6355Z" fill="#80B3D8"></path><path d="M146.883 77.9922L172.915 53.2578L285.245 79.7831L288.185 88.3353L146.888 77.9869L146.883 77.9922Z" fill="#ABD0EA"></path><path d="M181.271 80.4526L162.261 108.962L291.326 97.5571L288.182 88.3346L181.271 80.4526Z" fill="#80B3D8"></path><path d="M184.236 134.774L192.729 106.302L291.324 97.5518L293.931 105.101L184.231 134.774H184.236Z" fill="#ABD0EA"></path><path d="M210.217 153.809L211.96 126.753L293.917 105.102L296.39 112.185L210.217 153.809Z" fill="#80B3D8"></path><path d="M235.872 141.391L232.814 166.12L296.41 112.196L235.872 141.391Z" fill="#ABD0EA"></path><path d="M210.798 184.758L151.156 235.406L220.091 202.597L210.798 184.758Z" fill="black"></path></svg>