<svg width="48.003906" height="48.002441" viewBox="0 0 48.0039 48.0024" fill="none">
  <path id="Middle Ring"
    d="M29.8037 47.2825C35.0928 45.9683 39.9653 42.8577 43.416 38.1099C46.6187 33.6997 48.3521 28.1846 47.938 22.3296C47.5625 16.8926 45.3452 11.5535 41.2642 7.33447C37.4814 3.41113 32.3516 0.746338 26.5132 0.137451C21.0938 -0.436768 15.4507 0.819824 10.5874 4.10596C6.06641 7.1499 2.55127 11.7395 0.937988 17.3831C-0.568359 22.6208 -0.311035 28.396 2.08057 33.7563C4.29346 38.7371 8.20264 42.9956 13.4805 45.5645C18.377 47.9575 24.1094 48.707 29.8037 47.2825ZM40.7573 22.8313C41.0254 26.637 40.0073 30.5535 37.5918 33.877C35.3477 36.9624 32.0503 39.3083 28.0625 40.2979C24.3613 41.2227 20.3271 40.9001 16.6362 39.095C13.2065 37.4243 10.3237 34.5842 8.65674 30.8289C7.10352 27.3445 6.72021 23.3159 7.85742 19.3674C8.90723 15.6997 11.2031 12.3677 14.6123 10.0737C17.7739 7.93896 21.6748 6.8623 25.7607 7.29639C29.5547 7.69312 33.2354 9.37573 36.0859 12.3347C38.7378 15.0776 40.4751 18.7322 40.7573 22.8313Z"
    fill="#1470F5" fill-opacity="0.140000" fill-rule="evenodd" />
  <path id="Selection"
    d="M40.5693 26.8032C40.9302 24.668 40.8667 22.5095 40.417 20.4426C39.5757 16.5415 37.4341 13.251 34.5459 10.9255C32.8291 9.53833 30.9199 8.54614 28.9297 7.93628C28.4814 7.79907 28.0293 7.68115 27.5742 7.58252C25.6313 7.16113 24.002 5.58862 24.002 3.60059L24.002 3.6001C24.002 1.61182 25.6226 -0.0285645 27.5889 0.266846C28.9033 0.464355 30.1836 0.768799 31.4199 1.1709C34.2314 2.08545 36.8164 3.50562 39.0669 5.32397C43.5078 8.89917 46.3354 13.7427 47.4526 18.9207C48.0933 21.8643 48.1611 24.801 47.7319 27.6143C47.5327 28.9214 47.2261 30.2019 46.8198 31.4441C46.2017 33.334 44.0093 34.0466 42.2324 33.1543C40.4556 32.2622 39.7827 30.1006 40.2773 28.175C40.3945 27.7197 40.4917 27.262 40.5693 26.8032Z"
    fill="#1470F5" fill-opacity="1.000000" fill-rule="evenodd" />
</svg>