<svg width="111" height="95" viewBox="0 0 111 95" fill="none" xmlns="http://www.w3.org/2000/svg">
  <path fill-rule="evenodd" clip-rule="evenodd"
    d="M52.7869 8.51829L47.8125 3.54395C43.1556 -1.11296 35.6053 -1.11296 30.9484 3.54395L3.54456 30.9478C-1.11235 35.6047 -1.11235 43.155 3.54456 47.8119L12.1642 56.4315C11.4832 52.708 12.5823 48.7227 15.4615 45.8434L52.7869 8.51829ZM80.0515 3.6229C75.3946 -1.03401 67.8445 -1.03401 63.1876 3.6229L19.6223 47.188C14.9654 51.8449 14.9654 59.3952 19.6223 64.0521L47.0264 91.4559C51.6831 96.1128 59.2333 96.1128 63.8903 91.4559L107.456 47.8906C112.112 43.2339 112.112 35.6837 107.456 31.0267L80.0515 3.6229ZM66.9886 33.5249C64.0393 36.4741 64.0393 41.2561 66.9886 44.2054C69.9378 47.1547 74.7198 47.1547 77.6691 44.2054L88.3496 33.5249C91.2989 30.5756 91.2989 25.7936 88.3496 22.8443C85.4003 19.8951 80.6184 19.8951 77.6691 22.8443L66.9886 33.5249ZM80.339 25.5147C81.8138 24.04 84.2047 24.04 85.6794 25.5147C87.1541 26.9894 87.1541 29.3804 85.6794 30.8551C84.2047 32.3298 81.8138 32.3298 80.339 30.8551C78.8643 29.3804 78.8643 26.9894 80.339 25.5147Z"
    fill="white" />
  <path fill-rule="evenodd" clip-rule="evenodd"
    d="M52.7869 8.51829L47.8125 3.54395C43.1556 -1.11296 35.6053 -1.11296 30.9484 3.54395L3.54456 30.9478C-1.11235 35.6047 -1.11235 43.155 3.54456 47.8119L12.1642 56.4315C11.4832 52.708 12.5823 48.7227 15.4615 45.8434L52.7869 8.51829ZM80.0515 3.6229C75.3946 -1.03401 67.8445 -1.03401 63.1876 3.6229L19.6223 47.188C14.9654 51.8449 14.9654 59.3952 19.6223 64.0521L47.0264 91.4559C51.6831 96.1128 59.2333 96.1128 63.8903 91.4559L107.456 47.8906C112.112 43.2339 112.112 35.6837 107.456 31.0267L80.0515 3.6229ZM66.9886 33.5249C64.0393 36.4741 64.0393 41.2561 66.9886 44.2054C69.9378 47.1547 74.7198 47.1547 77.6691 44.2054L88.3496 33.5249C91.2989 30.5756 91.2989 25.7936 88.3496 22.8443C85.4003 19.8951 80.6184 19.8951 77.6691 22.8443L66.9886 33.5249ZM80.339 25.5147C81.8138 24.04 84.2047 24.04 85.6794 25.5147C87.1541 26.9894 87.1541 29.3804 85.6794 30.8551C84.2047 32.3298 81.8138 32.3298 80.339 30.8551C78.8643 29.3804 78.8643 26.9894 80.339 25.5147Z"
    fill="url(#paint0_linear_292_15089)" />
  <defs>
    <linearGradient id="paint0_linear_292_15089" x1="44.1838" y1="0.051221" x2="44.1838" y2="141.267"
      gradientUnits="userSpaceOnUse">
      <stop stop-color="#67BFEB" />
      <stop offset="1" stop-color="#0196FD" />
    </linearGradient>
  </defs>
</svg>