<svg xmlns="http://www.w3.org/2000/svg" width="48" height="48" viewBox="0 0 48 48"><path fill="#7D00FF" d="M39.788 20.363a6.1 6.1 0 0 0 3.411 -1.041 6.2 6.2 0 0 0 2.263 -2.772 6.2 6.2 0 0 0 0.351 -3.57 6.2 6.2 0 0 0 -1.677 -3.165 6.13 6.13 0 0 0 -3.142 -1.695 6.1 6.1 0 0 0 -3.547 0.347 6.15 6.15 0 0 0 -2.76 2.271 6.22 6.22 0 0 0 -0.577 5.8c0.308 0.752 0.76 1.434 1.331 2.01a6.13 6.13 0 0 0 4.347 1.815M20.951 48.199a14.9 14.9 0 0 1 -8.308 -2.544 15.04 15.04 0 0 1 -5.506 -6.759 15.15 15.15 0 0 1 -0.849 -8.698 15.1 15.1 0 0 1 4.095 -7.708 14.93 14.93 0 0 1 7.659 -4.121 14.87 14.87 0 0 1 8.643 0.854 15 15 0 0 1 6.716 5.541 15.1 15.1 0 0 1 2.528 8.362 15.2 15.2 0 0 1 -1.137 5.77 15.1 15.1 0 0 1 -3.246 4.892 15 15 0 0 1 -4.861 3.267 14.9 14.9 0 0 1 -5.734 1.144"/></svg>