<svg viewBox="0 0 20.01 18.8778" fill="none">
  <path
    d="M18.1001 6.65887C16.29 6.65887 15.55 5.37891 16.45 3.8089C16.97 2.89893 16.6599 1.73889 15.75 1.21887L14.02 0.228882C13.23 -0.241089 12.21 0.0388794 11.74 0.828918L11.6299 1.01892C10.73 2.58893 9.25 2.58893 8.34009 1.01892L8.22998 0.828918C7.78003 0.0388794 6.76001 -0.241089 5.96997 0.228882L4.23999 1.21887C3.33008 1.73889 3.02002 2.90887 3.54004 3.81891C4.44995 5.37891 3.70996 6.65887 1.8999 6.65887C0.860107 6.65887 0 7.50891 0 8.5589L0 10.3189C0 11.3589 0.850098 12.2189 1.8999 12.2189C3.70996 12.2189 4.44995 13.4989 3.54004 15.0689C3.02002 15.9789 3.33008 17.1389 4.23999 17.6589L5.96997 18.6489C6.76001 19.1189 7.78003 18.8389 8.25 18.0489L8.36011 17.8589C9.26001 16.2889 10.74 16.2889 11.6499 17.8589L11.76 18.0489C12.23 18.8389 13.25 19.1189 14.04 18.6489L15.77 17.6589C16.6799 17.1389 16.99 15.9689 16.47 15.0689C15.5601 13.4989 16.3 12.2189 18.1101 12.2189C19.1499 12.2189 20.01 11.3689 20.01 10.3189L20.01 8.5589C20 7.51892 19.1499 6.65887 18.1001 6.65887ZM10 12.6889C8.20996 12.6889 6.75 11.2289 6.75 9.4389C6.75 7.64893 8.20996 6.1889 10 6.1889C11.79 6.1889 13.25 7.64893 13.25 9.4389C13.25 11.2289 11.79 12.6889 10 12.6889Z"
    fill="currentColor" fill-opacity="1.000000" fill-rule="evenodd" />
</svg>