<svg xmlns="http://www.w3.org/2000/svg" width="86" height="102" viewBox="0 0 86 102" fill="none">
<g clip-path="url(#clip0_16667_296826)">
<path d="M17.9955 76.1129C17.916 76.2888 17.8393 76.4661 17.7654 76.6447C16.8578 78.8374 16.3906 81.1875 16.3906 83.5609C16.3906 85.9343 16.8578 88.2844 17.7654 90.4771C18.673 92.6698 20.0033 94.6621 21.6803 96.3402C23.3571 98.0186 25.3479 99.3499 27.5388 100.258C29.7298 101.167 32.0781 101.634 34.4496 101.634C36.8211 101.634 39.1694 101.167 41.3604 100.258C43.5514 99.3499 45.5421 98.0186 47.2189 96.3402L80.4505 63.0852C83.9124 59.6201 85.8573 54.9207 85.8573 50.0207C85.8573 45.6194 84.4961 41.3788 81.5234 38.0512C80.0565 37.417 78.4348 37.2225 76.8646 37.5176C75.4601 37.7815 74.1726 38.6159 73.1009 39.5961L41.5317 72.0199C40.9459 72.6251 40.2724 73.1272 39.5394 73.5127C39.9267 73.2742 40.3086 73.0252 40.6847 72.7659C40.6526 72.779 40.6205 72.7918 40.5883 72.8045C40.6197 72.7834 40.651 72.7622 40.6822 72.7409C40.7145 72.719 40.7466 72.697 40.7788 72.675C40.7154 72.7184 40.652 72.7616 40.5883 72.8045C35.8036 76.0278 30.0937 77.5957 24.3312 77.2644C22.1665 77.1399 20.0397 76.7501 17.9955 76.1129Z" fill="#104ADE"/>
<path d="M40.5878 72.8042C40.6515 72.7613 40.715 72.7182 40.7783 72.6747C39.5655 73.1667 38.2489 73.3471 36.9486 73.1996C35.6483 73.052 34.4056 72.581 33.3337 71.8297C32.3831 71.1595 31.5898 70.2901 31.0088 69.282C30.4278 68.274 30.0732 67.1514 29.9694 65.9923C29.8657 64.8332 30.0154 63.6654 30.4081 62.5701C30.8009 61.4747 31.4272 60.4781 32.2436 59.6495L42.7518 49.0415L58.0985 33.6827C58.1203 33.6644 58.1418 33.6458 58.1633 33.6272C58.2063 33.59 58.2493 33.5528 58.2946 33.5179L60.6044 31.2048C61.7341 30.9715 62.9287 30.8711 64.1747 30.8711C66.8738 30.8711 69.1697 31.1349 71.4581 31.7973C74.7865 32.5167 77.8487 34.1865 80.2695 36.6192C80.7262 37.0808 81.1567 37.5718 81.5557 38.0652C80.0801 37.4197 78.446 37.2201 76.8641 37.5173C75.4596 37.7812 74.1721 38.6157 73.1004 39.5958L41.5313 72.0197C40.9454 72.6248 40.2719 73.1269 39.5389 73.5125C39.9262 73.2739 40.3081 73.025 40.6842 72.7657C40.6521 72.7788 40.62 72.7916 40.5878 72.8042Z" fill="#0038C7"/>
<path d="M66.0586 11.1175C65.2172 9.08502 63.9834 7.23861 62.4278 5.68403C60.6287 3.88207 58.4925 2.45259 56.1411 1.47729C53.7897 0.501994 51.2693 0 48.724 0C46.1787 0 43.6583 0.501994 41.3069 1.47729C38.9556 2.45259 36.8193 3.88207 35.0202 5.68403L7.65966 33.0582C2.8555 37.8663 0.109569 44.3568 0.00320856 51.1555C-0.103152 57.9543 2.4384 64.5276 7.08982 69.4839L7.37474 69.7612L7.67012 70.0673C7.93935 70.3319 8.22203 70.5825 8.51705 70.8181C12.9297 74.6599 18.4921 76.9265 24.3313 77.2622C30.1704 77.5979 35.9556 75.9837 40.7788 72.6728C39.566 73.1648 38.2495 73.3453 36.9492 73.1977C35.6488 73.0501 34.4061 72.5792 33.3342 71.8278C32.3836 71.1576 31.5903 70.2882 31.0093 69.2801C30.4284 68.2721 30.0737 67.1495 29.97 65.9904C29.8662 64.8313 30.0159 63.6635 30.4087 62.5682C30.8014 61.4729 31.4277 60.4762 32.2442 59.6476L42.7524 49.0396L58.0991 33.6808C58.1644 33.6259 58.2271 33.5683 58.2951 33.516L62.4278 29.3775C64.77 27.0357 66.3652 24.0511 67.0115 20.8016C67.6578 17.552 67.3262 14.1836 66.0586 11.1228V11.1175Z" fill="#0F75FC"/>
</g>
<defs>
<clipPath id="clip0_16667_296826">
<rect width="86" height="101.502" fill="white"/>
</clipPath>
</defs>
</svg>