<svg width="48.001862" height="48.002441" viewBox="0 0 48.0019 48.0024" fill="none">
  <defs>
    <clipPath id="clip392_19799">
      <rect id="check" width="24.000000" height="24.000000" transform="translate(12.501862 12.000000)" fill="white"
        fill-opacity="0" />
    </clipPath>
  </defs>
  <path id="Middle Ring"
    d="M29.8034 47.2824C35.0926 45.9683 39.9655 42.8577 43.416 38.1099C46.6188 33.6996 48.3522 28.1846 47.938 22.3295C47.5622 16.8925 45.3451 11.5535 41.2643 7.33447C37.4815 3.41101 32.3513 0.746277 26.5132 0.137451C21.0935 -0.436646 15.4507 0.819702 10.5871 4.10596C6.06638 7.14984 2.5513 11.7394 0.937927 17.3831C-0.568573 22.6207 -0.311157 28.396 2.0806 33.7563C4.29324 38.737 8.20273 42.9957 13.4805 45.5645C18.377 47.9576 24.1092 48.707 29.8034 47.2824ZM40.7572 22.8313C41.0252 26.6369 40.0072 30.5535 37.5918 33.877C35.3475 36.9624 32.0502 39.3083 28.0623 40.2979C24.3611 41.2227 20.3272 40.9002 16.6363 39.0949C13.2065 37.4242 10.3237 34.5843 8.65671 30.8289C7.10327 27.3445 6.72031 23.3159 7.85727 19.3676C8.90701 15.6998 11.2032 12.3676 14.6121 10.0738C17.7738 7.9389 21.6747 6.86218 25.7605 7.29626C29.5548 7.69318 33.2351 9.37579 36.086 12.3346C38.7375 15.0776 40.4752 18.7322 40.7572 22.8313Z"
    fill="#14B86B" fill-opacity="0.140000" fill-rule="evenodd" />
  <rect id="check" width="24.000000" height="24.000000" transform="translate(12.501862 12.000000)" fill="#FFFFFF"
    fill-opacity="0" />
  <g clip-path="url(#clip392_19799)">
    <path id="Icon" d="M32.5019 18L21.5019 29L16.5019 24" stroke="#14B86B" stroke-opacity="1.000000"
      stroke-width="4.000000" stroke-linejoin="round" stroke-linecap="round" />
  </g>
</svg>