<svg viewBox="0 0 24 24" fill="none">
  <path
    d="M22 8.5C22 11.76 19.6001 14.45 16.48 14.92L16.48 14.86C16.1702 10.98 13.02 7.83002 9.11011 7.52002L9.08008 7.52002C9.55005 4.40002 12.24 2 15.5 2C19.0901 2 22 4.90997 22 8.5Z"
    fill="currentColor" fill-opacity="1.000000" fill-rule="nonzero" />
  <g opacity="0.000000" />
  <path
    d="M14.98 14.98C14.73 11.81 12.1899 9.27002 9.02002 9.02002C8.8501 9.01001 8.66992 9 8.5 9C4.90991 9 2 11.91 2 15.5C2 19.09 4.90991 22 8.5 22C12.0901 22 15 19.09 15 15.5C15 15.33 14.99 15.15 14.98 14.98ZM9.37988 16.38L8.5 18L7.62012 16.38L6 15.5L7.62012 14.62L8.5 13L9.37988 14.62L11 15.5L9.37988 16.38Z"
    fill="currentColor" fill-opacity="1.000000" fill-rule="nonzero" />
</svg>