<svg viewBox="0 0 8 8" fill="none">
  <path
    d="M3.16772 0.945129L0.311523 6.65411C0.088623 7.09979 -0.0229492 7.32257 0.00390625 7.50372C0.0273438 7.66187 0.114746 7.80341 0.24585 7.89508C0.395996 8 0.645264 8 1.1438 8L6.8562 8C7.35474 8 7.604 8 7.75415 7.89508C7.88525 7.80341 7.97266 7.66187 7.99609 7.50372C8.02295 7.32257 7.91138 7.09979 7.68848 6.65411L4.83228 0.945129C4.56445 0.409729 4.43042 0.141968 4.24927 0.0560913C4.09155 -0.0186768 3.90845 -0.0186768 3.75073 0.0560913C3.56958 0.141968 3.43555 0.409729 3.16772 0.945129Z"
    fill="currentColor" fill-opacity="1.000000" fill-rule="evenodd" />
</svg>
