<svg xmlns="http://www.w3.org/2000/svg" width="8" height="8" viewBox="0 0 8 8" fill="none">
  <path d="M3.16773 7.05487L0.311562 1.34586C0.0886128 0.900221 -0.022862 0.677401 0.00391413 0.496277C0.0272952 0.338118 0.114829 0.196568 0.245916 0.104937C0.396039 0 0.645304 0 1.14383 0H6.85617C7.3547 0 7.60396 0 7.75408 0.104937C7.88517 0.196568 7.9727 0.338118 7.99609 0.496277C8.02286 0.677401 7.91139 0.900221 7.68844 1.34586L4.83227 7.05486C4.5644 7.5903 4.43046 7.85802 4.24922 7.94393C4.09149 8.01869 3.90851 8.01869 3.75078 7.94393C3.56954 7.85802 3.4356 7.5903 3.16773 7.05487Z" fill="#FF5454"/>
</svg>