<svg width="24.000000" height="24.000000" viewBox="0 0 24 24" fill="none">
  <defs>
    <clipPath id="clip335_11304">
      <rect id="Warning Fill" width="24.000000" height="24.000000" fill="white" fill-opacity="0" />
    </clipPath>
    <linearGradient id="paint_linear_29_3769_0" x1="12.000305" y1="2.571533" x2="12.000305" y2="21.857248"
      gradientUnits="userSpaceOnUse">
      <stop stop-color="#FFB843" />
      <stop offset="1.000000" stop-color="#FF9E00" />
    </linearGradient>
  </defs>
  <g clip-path="url(#clip335_11304)">
    <path id="Shape"
      d="M10.9546 2.79395C10.1909 3.13379 9.60645 4.14624 8.43701 6.17163L2.94434 15.6858C1.7749 17.7109 1.19043 18.7236 1.27734 19.5547C1.35352 20.2793 1.73389 20.9377 2.32324 21.3662C2.99951 21.8572 4.16846 21.8572 6.50732 21.8572L17.4932 21.8572C19.832 21.8572 21.001 21.8572 21.6772 21.3662C22.2666 20.9377 22.647 20.2793 22.7231 19.5547C22.8105 18.7236 22.2256 17.7109 21.0566 15.6858L15.5635 6.17163C14.394 4.14624 13.8096 3.13379 13.0464 2.79395C12.3804 2.49731 11.6201 2.49731 10.9546 2.79395ZM12.9268 9.08569L12.8291 14.6145C12.8213 15.0664 12.4526 15.4287 12.0005 15.4287C11.5488 15.4287 11.1802 15.0664 11.1719 14.6145L11.0742 9.08569C11.0654 8.56763 11.4824 8.14307 12.0005 8.14307C12.5186 8.14307 12.936 8.56763 12.9268 9.08569ZM13.0718 17.5715C13.0718 18.1633 12.5918 18.6431 12.0005 18.6431C11.4087 18.6431 10.9287 18.1633 10.9287 17.5715C10.9287 16.9797 11.4087 16.5 12.0005 16.5C12.5918 16.5 13.0718 16.9797 13.0718 17.5715Z"
      fill="#000000" fill-opacity="1.000000" fill-rule="evenodd" />
    <path id="Shape"
      d="M10.9546 2.79395C10.1909 3.13379 9.60645 4.14624 8.43701 6.17163L2.94434 15.6858C1.7749 17.7109 1.19043 18.7236 1.27734 19.5547C1.35352 20.2793 1.73389 20.9377 2.32324 21.3662C2.99951 21.8572 4.16846 21.8572 6.50732 21.8572L17.4932 21.8572C19.832 21.8572 21.001 21.8572 21.6772 21.3662C22.2666 20.9377 22.647 20.2793 22.7231 19.5547C22.8105 18.7236 22.2256 17.7109 21.0566 15.6858L15.5635 6.17163C14.394 4.14624 13.8096 3.13379 13.0464 2.79395C12.3804 2.49731 11.6201 2.49731 10.9546 2.79395ZM12.9268 9.08569L12.8291 14.6145C12.8213 15.0664 12.4526 15.4287 12.0005 15.4287C11.5488 15.4287 11.1802 15.0664 11.1719 14.6145L11.0742 9.08569C11.0654 8.56763 11.4824 8.14307 12.0005 8.14307C12.5186 8.14307 12.936 8.56763 12.9268 9.08569ZM13.0718 17.5715C13.0718 18.1633 12.5918 18.6431 12.0005 18.6431C11.4087 18.6431 10.9287 18.1633 10.9287 17.5715C10.9287 16.9797 11.4087 16.5 12.0005 16.5C12.5918 16.5 13.0718 16.9797 13.0718 17.5715Z"
      fill="url(#paint_linear_29_3769_0)" fill-opacity="1.000000" fill-rule="evenodd" />
  </g>
</svg>