<svg width="208" height="178" viewBox="0 0 208 178" fill="none" xmlns="http://www.w3.org/2000/svg">
<path fill-rule="evenodd" clip-rule="evenodd" d="M90.2567 24.3391C94.943 19.6528 94.943 12.0548 90.2567 7.36852L89.428 6.53977C80.7083 -2.17992 66.571 -2.17992 57.8513 6.53977L6.53977 57.8513C-2.17992 66.571 -2.17992 80.7083 6.53977 89.428L7.40785 90.2961C12.0788 94.967 24.1824 90.4131 28.8533 85.7422V85.7422L90.2567 24.3391ZM149.793 6.68758C141.073 -2.03212 126.936 -2.03212 118.217 6.68758L36.6441 88.2598C27.9244 96.9795 27.9244 111.117 36.6441 119.836L87.9561 171.148C96.6753 179.868 110.813 179.868 119.532 171.148L201.105 89.5754C209.824 80.8561 209.824 66.7188 201.105 57.9991L149.793 6.68758ZM125.334 62.6766C119.811 68.1989 119.811 77.1528 125.334 82.6751C130.856 88.1974 139.81 88.1974 145.332 82.6751L165.331 62.6766C170.853 57.1543 170.853 48.2005 165.331 42.6782C159.808 37.1559 150.854 37.1559 145.332 42.6782L125.334 62.6766ZM150.331 47.6783C153.093 44.917 157.57 44.917 160.331 47.6783C163.092 50.4396 163.092 54.9165 160.331 57.6778C157.57 60.4391 153.093 60.439 150.331 57.6778C147.57 54.9165 147.57 50.4396 150.331 47.6783Z" fill="url(#paint0_linear_2001_671)"/>
<defs>
<linearGradient id="paint0_linear_2001_671" x1="32.5001" y1="-40.5" x2="340.751" y2="349.884" gradientUnits="userSpaceOnUse">
<stop stop-color="#2B96EF" stop-opacity="0.1"/>
<stop offset="1" stop-color="#1F7ECC" stop-opacity="0.4"/>
</linearGradient>
</defs>
</svg>
