<svg viewBox="0 0 24 24" fill="none">
  <path
    d="M11.25 8.08008L11.25 10.9399L10.24 10.5898C9.7301 10.4102 9.42004 10.2402 9.42004 9.37012C9.42004 8.66016 9.95007 8.08008 10.6001 8.08008L11.25 8.08008Z"
    fill="currentColor" fill-opacity="1.000000" fill-rule="nonzero" />
  <path
    d="M14.58 14.6299C14.58 15.3398 14.05 15.9199 13.4 15.9199L12.75 15.9199L12.75 13.0601L13.76 13.4102C14.27 13.5898 14.58 13.7603 14.58 14.6299Z"
    fill="currentColor" fill-opacity="1.000000" fill-rule="nonzero" />
  <path
    d="M16.1899 2L7.81006 2C4.17004 2 2 4.16992 2 7.81006L2 16.1899C2 19.8301 4.17004 22 7.81006 22L16.1899 22C19.83 22 22 19.8301 22 16.1899L22 7.81006C22 4.16992 19.83 2 16.1899 2ZM14.26 12C15.04 12.27 16.08 12.8398 16.08 14.6299C16.08 16.1699 14.88 17.4199 13.4 17.4199L12.75 17.4199L12.75 18C12.75 18.4102 12.41 18.75 12 18.75C11.59 18.75 11.25 18.4102 11.25 18L11.25 17.4199L10.89 17.4199C9.25 17.4199 7.92004 16.0298 7.92004 14.3301C7.92004 13.9199 8.25 13.5801 8.67004 13.5801C9.07996 13.5801 9.42004 13.9199 9.42004 14.3301C9.42004 15.21 10.08 15.9199 10.89 15.9199L11.25 15.9199L11.25 12.5298L9.73999 12C8.95996 11.73 7.92004 11.1602 7.92004 9.37012C7.92004 7.83008 9.12 6.58008 10.6 6.58008L11.25 6.58008L11.25 6C11.25 5.58984 11.59 5.25 12 5.25C12.41 5.25 12.75 5.58984 12.75 6L12.75 6.58008L13.11 6.58008C14.75 6.58008 16.08 7.97021 16.08 9.66992C16.08 10.0801 15.75 10.4199 15.33 10.4199C14.92 10.4199 14.58 10.0801 14.58 9.66992C14.58 8.79004 13.92 8.08008 13.11 8.08008L12.75 8.08008L12.75 11.4702L14.26 12Z"
    fill="currentColor" fill-opacity="1.000000" fill-rule="nonzero" />
  <g opacity="0.000000" />
</svg>