<svg viewBox="0 0 24 24" fill="none">
  <path
    d="M17 2.43018L7 2.43018C4 2.43018 2 4.43018 2 7.43018L2 13.4302C2 16.4302 4 18.4302 7 18.4302L7 20.5601C7 21.3604 7.89001 21.8403 8.55005 21.3901L13 18.4302L17 18.4302C20 18.4302 22 16.4302 22 13.4302L22 7.43018C22 4.43018 20 2.43018 17 2.43018ZM12 14.6001C11.58 14.6001 11.25 14.2603 11.25 13.8501C11.25 13.4399 11.58 13.1001 12 13.1001C12.42 13.1001 12.75 13.4399 12.75 13.8501C12.75 14.2603 12.42 14.6001 12 14.6001ZM13.26 10.4502C12.87 10.71 12.75 10.8804 12.75 11.1602L12.75 11.3701C12.75 11.7803 12.41 12.1201 12 12.1201C11.59 12.1201 11.25 11.7803 11.25 11.3701L11.25 11.1602C11.25 10 12.1 9.43018 12.42 9.20996C12.79 8.95996 12.91 8.79004 12.91 8.53027C12.91 8.03027 12.5 7.62012 12 7.62012C11.5 7.62012 11.09 8.03027 11.09 8.53027C11.09 8.93994 10.75 9.28027 10.34 9.28027C9.93005 9.28027 9.58997 8.93994 9.58997 8.53027C9.58997 7.2002 10.67 6.12012 12 6.12012C13.33 6.12012 14.41 7.2002 14.41 8.53027C14.41 9.67041 13.5699 10.2402 13.26 10.4502Z"
    fill="currentColor" fill-opacity="1.000000" fill-rule="nonzero" />
</svg>