<svg viewBox="0 0 24 24" fill="none">
  <g opacity="0.000000" />
  <path
    d="M16.1899 2L7.81006 2C4.17004 2 2 4.16992 2 7.81006L2 16.1802C2 19.8301 4.17004 22 7.81006 22L16.1801 22C19.8199 22 21.99 19.8301 21.99 16.1899L21.99 7.81006C22 4.16992 19.83 2 16.1899 2ZM17 17.4702C15.29 17.4702 13.6899 16.73 12.41 15.3599C10.96 16.6699 9.06995 17.4702 7 17.4702C6.58997 17.4702 6.25 17.1299 6.25 16.7202C6.25 16.3101 6.58997 15.9702 7 15.9702C10.47 15.9702 13.34 13.2202 13.71 9.7002L12 9.7002L7.01001 9.7002C6.59998 9.7002 6.26001 9.35986 6.26001 8.9502C6.26001 8.54004 6.59998 8.20996 7.01001 8.20996L11.25 8.20996L11.25 7.27979C11.25 6.87012 11.59 6.52979 12 6.52979C12.41 6.52979 12.75 6.87012 12.75 7.27979L12.75 8.20996L14.4399 8.20996C14.46 8.20996 14.48 8.2002 14.5 8.2002C14.52 8.2002 14.54 8.20996 14.5601 8.20996L16.99 8.20996C17.4 8.20996 17.74 8.5498 17.74 8.95996C17.74 9.37012 17.4 9.70996 16.99 9.70996L15.21 9.70996C15.0601 11.4199 14.42 12.9902 13.4399 14.27C14.4399 15.3799 15.6899 15.98 17 15.98C17.41 15.98 17.75 16.3198 17.75 16.73C17.75 17.1401 17.41 17.4702 17 17.4702Z"
    fill="currentColor" fill-opacity="1.000000" fill-rule="nonzero" />
</svg>