<svg viewBox="0 0 24 24" fill="none">
  <path
    d="M22 5C22 6.65674 20.6569 8 19 8C17.3431 8 16 6.65674 16 5C16 3.34326 17.3431 2 19 2C20.6569 2 22 3.34326 22 5Z"
    fill="currentColor" fill-opacity="1.000000" fill-rule="evenodd" />
  <path
    d="M19.8 9.41992C19.78 9.41992 19.76 9.43018 19.74 9.43018C19.64 9.4502 19.54 9.45996 19.4301 9.47998C19.01 9.52002 18.5601 9.5 18.1 9.41016C17.98 9.37988 17.88 9.35986 17.77 9.31982C17.4399 9.24023 17.13 9.10986 16.84 8.93994C16.72 8.87988 16.6 8.7998 16.49 8.72998C16.01 8.3999 15.6 7.99023 15.27 7.50977C15.2 7.3999 15.12 7.27979 15.0601 7.16016C14.89 6.87012 14.76 6.56006 14.6801 6.22998C14.64 6.12012 14.62 6.02002 14.59 5.8999C14.5 5.43994 14.48 4.99023 14.52 4.56982C14.54 4.45996 14.55 4.35986 14.5699 4.25977C14.5699 4.24023 14.58 4.22021 14.58 4.2002C14.7 3.58008 14.24 3 13.6 3L7.52002 3C7.38 3 7.23999 3.00977 7.10999 3.02002C6.98999 3.02979 6.88 3.04004 6.76001 3.06006C6.64001 3.06982 6.52002 3.08984 6.41003 3.10986C4 3.45996 2.45996 4.99023 2.10999 7.41016C2.08997 7.52002 2.06995 7.64014 2.06006 7.75977C2.04004 7.87988 2.03003 7.99023 2.02002 8.10986C2.01001 8.24023 2 8.37988 2 8.52002L2 16.48C2 16.6201 2.01001 16.7598 2.02002 16.8901C2.03003 17.0098 2.04004 17.1201 2.06006 17.2402C2.06995 17.3599 2.08997 17.48 2.10999 17.5898C2.45996 20.0098 4 21.54 6.41003 21.8901C6.52002 21.9102 6.64001 21.9302 6.76001 21.9399C6.88 21.96 6.98999 21.9702 7.10999 21.98C7.23999 21.9902 7.38 22 7.52002 22L15.48 22C15.62 22 15.76 21.9902 15.89 21.98C16.01 21.9702 16.12 21.96 16.24 21.9399C16.36 21.9302 16.48 21.9102 16.59 21.8901C19 21.54 20.54 20.0098 20.89 17.5898C20.91 17.48 20.9301 17.3599 20.9399 17.2402C20.96 17.1201 20.97 17.0098 20.98 16.8901C20.99 16.7598 21 16.6201 21 16.48L21 10.3999C21 9.75977 20.42 9.2998 19.8 9.41992ZM6.75 12.5L11.75 12.5C12.16 12.5 12.5 12.8398 12.5 13.25C12.5 13.6602 12.16 14 11.75 14L6.75 14C6.33997 14 6 13.6602 6 13.25C6 12.8398 6.33997 12.5 6.75 12.5ZM15.75 18L6.75 18C6.33997 18 6 17.6602 6 17.25C6 16.8398 6.33997 16.5 6.75 16.5L15.75 16.5C16.16 16.5 16.5 16.8398 16.5 17.25C16.5 17.6602 16.16 18 15.75 18Z"
    fill="currentColor" fill-opacity="1.000000" fill-rule="nonzero" />
</svg>