<svg viewBox="0 0 24 24" fill="none">
  <path
    d="M16 2L8 2C4 2 2 4 2 8L2 21C2 21.5498 2.44995 22 3 22L16 22C20 22 22 20 22 16L22 8C22 4 20 2 16 2ZM14 15.25L7 15.25C6.58997 15.25 6.25 14.9102 6.25 14.5C6.25 14.0898 6.58997 13.75 7 13.75L14 13.75C14.41 13.75 14.75 14.0898 14.75 14.5C14.75 14.9102 14.41 15.25 14 15.25ZM17 10.25L7 10.25C6.58997 10.25 6.25 9.91016 6.25 9.5C6.25 9.08984 6.58997 8.75 7 8.75L17 8.75C17.41 8.75 17.75 9.08984 17.75 9.5C17.75 9.91016 17.41 10.25 17 10.25Z"
    fill="currentColor" fill-opacity="1.000000" fill-rule="nonzero" />
</svg>