<svg viewBox="0 0 24 24" fill="none">
  <path
    d="M16 12.8999L16 17.1001C16 20.6001 14.6 22 11.1 22L6.90002 22C3.40002 22 2 20.6001 2 17.1001L2 12.8999C2 9.3999 3.40002 8 6.90002 8L11.1 8C14.6 8 16 9.3999 16 12.8999Z"
    fill="currentColor" fill-opacity="1.000000" fill-rule="nonzero" />
  <path
    d="M17.1 2L12.9 2C9.81641 2 8.37048 3.09424 8.06958 5.74023C8.00671 6.29346 8.46497 6.75 9.02197 6.75L11.1 6.75C15.3 6.75 17.25 8.7002 17.25 12.8999L17.25 14.978C17.25 15.5352 17.7064 15.9932 18.2598 15.9302C20.9055 15.6294 22 14.1836 22 11.1001L22 6.8999C22 3.3999 20.6 2 17.1 2Z"
    fill="currentColor" fill-opacity="1.000000" fill-rule="nonzero" />
  <g opacity="0.000000" />
</svg>