<svg viewBox="0 0 20 20" fill="none">
  <defs>
    <clipPath id="clip12_29002">
      <rect id="Scan" width="20.000000" height="20.000000"
        transform="translate(20.000000 20.000000) rotate(-179.999985)" fill="white" fill-opacity="0" />
    </clipPath>
  </defs>
  <rect id="Scan" width="20.000000" height="20.000000" transform="translate(20.000000 20.000000) rotate(-179.999985)"
    fill="#FFFFFF" fill-opacity="0" />
  <g clip-path="url(#clip12_29002)">
    <path id="Icon"
      d="M17.5 13.3333L17.5 13.5C17.5 14.9001 17.5 15.6001 17.2275 16.135C16.9878 16.6055 16.6053 16.9878 16.135 17.2275C15.6002 17.5 14.9001 17.5 13.5 17.5L13.3334 17.5M17.5 6.66675L17.5 6.5C17.5 5.09985 17.5 4.3999 17.2275 3.86499C16.9878 3.39453 16.6053 3.01221 16.135 2.77246C15.6002 2.5 14.9001 2.5 13.5 2.5L13.3334 2.5M6.66663 17.5L6.5 17.5C5.09985 17.5 4.39978 17.5 3.86499 17.2275C3.39465 16.9878 3.01221 16.6055 2.77246 16.135C2.5 15.6001 2.5 14.9001 2.5 13.5L2.5 13.3333M6.66663 2.5L6.5 2.5C5.09985 2.5 4.39978 2.5 3.86499 2.77246C3.39465 3.01221 3.01221 3.39453 2.77246 3.86499C2.5 4.3999 2.5 5.09985 2.5 6.5L2.5 6.66675"
      stroke="#1470F5" stroke-opacity="1.000000" stroke-width="2.000000" stroke-linejoin="round" />
  </g>
</svg>