<svg width="24.000000" height="24.000000" viewBox="0 0 24 24" fill="none">
  <defs>
    <clipPath id="clip41_26968">
      <rect id="share alt 2" width="24.000000" height="24.000000" fill="white" fill-opacity="0" />
    </clipPath>
  </defs>
  <rect id="share alt 2" width="24.000000" height="24.000000" fill="#FFFFFF" fill-opacity="0" />
  <g clip-path="url(#clip41_26968)">
    <path id="Union"
      d="M14.6741 3.77773C14.2346 4.43552 14 5.20888 14 6C14 6.2814 14.0296 6.55974 14.0872 6.83084L9.00999 9.36562C8.95181 9.29915 8.89128 9.23442 8.82843 9.17157C8.07828 8.42143 7.06087 8 6 8C5.20888 8 4.43552 8.2346 3.77773 8.67412C3.11992 9.11365 2.60724 9.73836 2.30449 10.4693C2.00174 11.2002 1.92252 12.0044 2.07686 12.7804C2.2312 13.5563 2.61217 14.269 3.17157 14.8284C3.73099 15.3878 4.44371 15.7688 5.21964 15.9231C5.99556 16.0775 6.79984 15.9983 7.53073 15.6955C8.10382 15.4581 8.6116 15.0917 9.01605 14.6275L14.0892 17.1602C13.9751 17.6913 13.9699 18.2426 14.0769 18.7804C14.2312 19.5563 14.6122 20.269 15.1716 20.8284C15.731 21.3878 16.4437 21.7688 17.2196 21.9231C17.9956 22.0775 18.7998 21.9983 19.5307 21.6955C20.2616 21.3928 20.8864 20.8801 21.3259 20.2223C21.7654 19.5645 22 18.7911 22 18C22 16.9391 21.5786 15.9217 20.8284 15.1716C20.0783 14.4214 19.0609 14 18 14C17.2089 14 16.4355 14.2346 15.7777 14.6741C15.4818 14.8719 15.2152 15.1071 14.9839 15.3726L9.91084 12.8398C9.96982 12.5652 10 12.2837 10 12C10 11.7124 9.96902 11.4279 9.90892 11.1512L14.9779 8.6205C15.0398 8.69185 15.1044 8.76122 15.1716 8.82843C15.9217 9.57857 16.9391 10 18 10C18.7911 10 19.5645 9.76541 20.2223 9.32588C20.8801 8.88635 21.3928 8.26164 21.6955 7.53073C21.9983 6.79984 22.0775 5.99556 21.9231 5.21964C21.7688 4.44371 21.3878 3.73099 20.8284 3.17157C20.269 2.61217 19.5563 2.2312 18.7804 2.07686C18.0044 1.92252 17.2002 2.00174 16.4693 2.30449C15.7384 2.60724 15.1136 3.11992 14.6741 3.77773Z"
      clip-rule="evenodd" fill="#1470F5" fill-opacity="1.000000" fill-rule="evenodd" />
  </g>
</svg>