<svg width="24.000000" height="24.000000" viewBox="0 0 24 24" fill="none">
  <path id="Vector"
    d="M22 7.5498C22 8.20996 21.46 8.75 20.8 8.75L3.20001 8.75C2.53998 8.75 2 8.20996 2 7.5498L2 7.53979C2 5.25 3.84998 3.3999 6.14001 3.3999L17.85 3.3999C20.14 3.3999 22 5.26001 22 7.5498Z"
    fill="currentColor" fill-opacity="1.000000" fill-rule="nonzero" />
  <path id="Vector"
    d="M2 11.45L2 16.46C2 18.75 3.84998 20.6001 6.14001 20.6001L17.85 20.6001C20.14 20.6001 22 18.74 22 16.45L22 11.45C22 10.79 21.46 10.25 20.8 10.25L3.20001 10.25C2.53998 10.25 2 10.79 2 11.45ZM8 17.25L6 17.25C5.59003 17.25 5.25 16.9099 5.25 16.5C5.25 16.0901 5.59003 15.75 6 15.75L8 15.75C8.40997 15.75 8.75 16.0901 8.75 16.5C8.75 16.9099 8.40997 17.25 8 17.25ZM14.5 17.25L10.5 17.25C10.09 17.25 9.75 16.9099 9.75 16.5C9.75 16.0901 10.09 15.75 10.5 15.75L14.5 15.75C14.91 15.75 15.25 16.0901 15.25 16.5C15.25 16.9099 14.91 17.25 14.5 17.25Z"
    fill="currentColor" fill-opacity="1.000000" fill-rule="nonzero" />
  <g opacity="0.000000" />
</svg>