<svg width="24.000000" height="24.000000" viewBox="0 0 24 24" fill="none">
  <path id="Vector"
    d="M12 15.7L12 15.8101C12 16.0901 11.78 16.3101 11.5 16.3101L2.5 16.3101C2.21997 16.3101 2 16.0901 2 15.8101L2 15.7C2 13.9399 2.44 13.5 4.21997 13.5L9.78003 13.5C11.56 13.5 12 13.9399 12 15.7Z"
    fill="currentColor" fill-opacity="1.000000" fill-rule="nonzero" />
  <path id="Vector"
    d="M2.5 17.3101C2.21997 17.3101 2 17.53 2 17.8101L2 18.8101L2 19.8C2 21.5601 2.44 22 4.21997 22L9.78003 22C11.56 22 12 21.5601 12 19.8L12 18.8101L12 17.8101C12 17.53 11.78 17.3101 11.5 17.3101L2.5 17.3101Z"
    fill="currentColor" fill-opacity="1.000000" fill-rule="nonzero" />
  <g opacity="0.000000" />
  <path id="Vector" d="M22 15C22 18.8701 18.87 22 15 22L16.05 20.25" stroke="currentColor" stroke-opacity="1.000000"
    stroke-width="1.500000" stroke-linejoin="round" stroke-linecap="round" />
  <path id="Vector" d="M2 9C2 5.12988 5.13 2 9 2L7.95001 3.75" stroke="currentColor" stroke-opacity="1.000000"
    stroke-width="1.500000" stroke-linejoin="round" stroke-linecap="round" />
  <path id="Vector"
    d="M23 6.5C23 8.98535 20.9853 11 18.5 11C16.0147 11 14 8.98535 14 6.5C14 4.01465 16.0147 2 18.5 2C20.9853 2 23 4.01465 23 6.5Z"
    fill="currentColor" fill-opacity="1.000000" fill-rule="evenodd" />
</svg>