<svg width="24.000000" height="24.000000" viewBox="0 0 24 24" fill="none">
  <path
    d="M20.97 16.0801C20.73 18.75 18.8 20.5 16 20.5L7 20.5C4.23999 20.5 2 18.26 2 15.5L2 8.5C2 5.78003 3.64001 3.87988 6.19 3.56006C6.45001 3.52002 6.71997 3.5 7 3.5L16 3.5C16.26 3.5 16.51 3.51001 16.75 3.55005C19.14 3.83008 20.76 5.5 20.97 7.91992C21 8.20996 20.76 8.44995 20.47 8.44995L18.92 8.44995C17.96 8.44995 17.07 8.82007 16.43 9.47998C15.67 10.22 15.29 11.26 15.38 12.3C15.54 14.1201 17.14 15.55 19.04 15.55L20.47 15.55C20.76 15.55 21 15.79 20.97 16.0801Z"
    fill="currentColor" fill-opacity="1.000000" fill-rule="nonzero" />
  <g opacity="0.000000" />
  <path
    d="M22 10.97L22 13.03C22 13.5798 21.56 14.03 21 14.05L19.04 14.05C17.96 14.05 16.97 13.26 16.8799 12.1799C16.8199 11.55 17.06 10.96 17.48 10.55C17.85 10.1699 18.36 9.94995 18.92 9.94995L21 9.94995C21.56 9.96997 22 10.4199 22 10.97Z"
    fill="currentColor" fill-opacity="1.000000" fill-rule="nonzero" />
</svg>